Simulation
nRows=40
nColumns=15
endheader
time  TH_x TH_y TH_z SC_y  SC_z  SC_x  AC_y  AC_z  AC_x  GH_y  GH_z  GH_yy  EL_x  PS_y
0.0  0.000000  0.000000  0.000000  -35.81395965179809  40.705484851803156  12.905819653707358  28.557178578587195  -28.939667061493516  52.44857084003557  -57.170540107877144  34.070843238816835  56.015350755063615  96.4110926378032  120.000000
0.1205128205128205  0.000000  0.000000  0.000000  -45.66228718331055  25.3077861108853  14.283391196781052  65.8530299873928  -18.13974401678632  43.74362797920818  2.1867025308797463  26.612040319206322  2.663089283655438  88.22031869840292  120.000000
0.241025641025641  0.000000  0.000000  0.000000  -48.94727233426838  12.099948919853638  20.648841630528732  76.53371303251487  -18.832617489952273  19.701607914094854  52.05401002866406  36.59078081545118  -38.54699753032703  76.29673040728292  120.000000
0.3615384615384615  0.000000  0.000000  0.000000  -45.58328869499781  0.6846607454298527  27.528450718226924  61.92119817800536  -16.506477763891734  -4.931455719041261  75.2753466063154  50.41780126917562  -54.679946971992464  57.14727593708909  120.000000
0.482051282051282  0.000000  0.000000  0.000000  -39.17971743841184  -5.909213349296912  29.707708133297672  49.68431074932839  -8.900497652682109  -18.266887935649  87.51647648743588  66.48544220108911  -60.36747479780067  35.98999837898309  120.000000
0.6025641025641025  0.000000  0.000000  0.000000  -36.87461240459045  -10.676273316497161  18.633667541545016  47.72898881479642  -1.3349910642284066  -28.54101947646456  96.92476876271053  81.78695997566024  -59.000035592047325  20.237822034935864  120.000000
0.723076923076923  0.000000  0.000000  0.000000  -49.034750941543685  -4.306557519370373  -0.9384612154772609  47.23817057782594  12.821274181932228  -26.37467398748225  101.88050777638949  96.5577097364036  -51.53985766078202  19.521044650011305  120.000000
0.8435897435897435  0.000000  0.000000  0.000000  -66.04044490336639  17.941189099247506  -16.862368539412625  24.742846354651043  34.25866066194391  17.62907271005539  97.46288951370887  98.37453985150907  -41.89895483990008  38.708098715949625  120.000000
0.964102564102564  0.000000  0.000000  0.000000  -61.02207126712031  -3.3003848938749463  -6.292141749338477  63.76762832444136  35.173342273526615  29.33778720625972  54.20259282673379  70.2703315237006  -36.83975057600386  64.62946225341241  120.000000
1.0846153846153845  0.000000  0.000000  0.000000  -40.82437581164007  6.54263089490829  9.390141690015781  108.02900937737506  -14.566866783158689  36.60133225848379  15.84082214268511  51.264456173738985  -48.28119075523377  73.97815980706389  120.000000
1.205128205128205  0.000000  0.000000  0.000000  -32.56389029705341  -14.767358827163534  -1.289963637772079  13.27522730236898  -37.71570849184748  1.8239477411414773  37.287205891948304  56.787378004730506  -80.33039166688933  49.48866883988869  120.000000
1.3256410256410256  0.000000  0.000000  0.000000  -32.34527806129388  -18.764608446850897  -10.748641425898004  20.398355489461615  -36.736204759732466  9.309070669591582  14.45629298440522  41.10070713887465  -54.7774237853755  34.79460917289279  120.000000
1.446153846153846  0.000000  0.000000  0.000000  -44.39109032814985  8.968811120414927  15.285639159943754  106.02231126220218  -17.262213878089533  34.86941648166803  -44.94777266297821  31.59737896962763  47.99573424637648  66.925823670267  120.000000
1.5666666666666664  0.000000  0.000000  0.000000  -60.2536964252722  4.70996062086378  16.28539918793477  60.3629775052589  33.552024857286696  30.26099688149691  -103.66637792146537  21.968646928565374  157.16879461024064  101.7193116175883  120.000000
1.687179487179487  0.000000  0.000000  0.000000  -70.5308603180899  34.564738675202236  9.634033074976738  37.5384111050495  23.709405601699984  37.35572781508774  149.36103121059136  25.067694443004743  -100.0355109298581  114.52002946107598  120.000000
1.8076923076923075  0.000000  0.000000  0.000000  -54.600917178333134  28.648871030280134  42.345255683779925  56.55250210707352  3.831728909182045  26.868009923318645  127.68317495181094  36.16524596462065  -93.564147928668  117.38834631515354  120.000000
1.928205128205128  0.000000  0.000000  0.000000  -54.80439145051309  16.18536906008915  60.19192922314178  54.95625138048874  2.661318103727231  28.253843418495133  125.65170510101163  40.35802718761659  -96.31874607623703  115.83077494772387  120.000000
2.0487179487179485  0.000000  0.000000  0.000000  -75.58076189802847  13.360988017660986  49.01990332220652  71.30705971767843  9.608744990061341  21.040597175720386  123.53599214344145  45.71498066523778  -92.90273241701159  111.23893274079947  120.000000
2.169230769230769  0.000000  0.000000  0.000000  -66.32760604116802  35.39928831582506  30.88857790497942  67.54390846494871  15.12294344252765  21.53199727664752  120.44487188349088  57.75171668670651  -89.19915328778474  104.61464320994028  120.000000
2.2897435897435896  0.000000  0.000000  0.000000  -47.98461896730118  48.26292452395897  21.845260591571346  16.113493834909416  -3.7888502573592144  38.97459695907525  116.85510470457515  76.90354728601852  -82.56942608542342  93.89229559231833  120.000000
2.41025641025641  0.000000  0.000000  0.000000  -54.51344085073779  34.03839923345613  30.30778797138508  13.744059469685238  -6.536062597015815  34.93446086645575  97.52778272172989  93.3288651421271  -88.30752085800505  80.34804675692685  120.000000
2.5307692307692307  0.000000  0.000000  0.000000  -29.972853591829512  29.74837765476508  14.61148352936718  19.03672162428879  -1.4821618040342321  39.97199386738816  100.42132611265004  74.19617812237806  -103.215424258477  71.35867428219493  120.000000
2.651282051282051  0.000000  0.000000  0.000000  -68.93151477519068  45.63991452534567  39.78411753871426  18.282662556395014  -18.057835049143964  46.16787544153746  118.22238666708742  33.33233576923508  -111.44723795333441  89.44952146706359  120.000000
2.7717948717948717  0.000000  0.000000  0.000000  -37.59925098043302  43.8253298857208  70.18029830780742  35.23696680925309  -28.487468850796496  41.213736324977006  -37.10725959296993  77.6910758035419  8.790347026245447  91.3347834026342  120.000000
2.892307692307692  0.000000  0.000000  0.000000  -46.532275596882194  29.482628145949526  57.88864165141149  23.41552429765703  -32.06183820679591  42.56078361689343  -38.109037616651  34.811113234258784  -1.4261757187674073  38.94438048689169  120.000000
3.0128205128205123  0.000000  0.000000  0.000000  -86.14810921253121  67.33767913890108  30.481914119027547  10.849416487240862  18.43080656761976  34.66208021660674  123.73118996186933  41.509136548619544  -97.07419947391692  -4.9333470235869745  120.000000
3.133333333333333  0.000000  0.000000  0.000000  -17.548109999179765  -1.2550796196446974  25.937145854781633  13.997468390097616  -9.050816602945565  43.704667794172835  99.05842951434799  44.92333950994305  -39.396182533120175  -0.10211708952803861  120.000000
3.2538461538461534  0.000000  0.000000  0.000000  -67.42697309995377  52.32824293414254  48.92056923636422  44.09508618234677  -4.332954019051995  47.409790000180365  45.526982792343  60.23462049400148  -89.33919597363162  18.15967454155958  120.000000
3.374358974358974  0.000000  0.000000  0.000000  -77.02790908721323  40.34736423433408  64.50876530978486  49.79869218732993  6.8209375932970655  40.2852675360136  56.84396770961296  68.58550529043097  -77.64895383302806  -3.827992166118517  120.000000
3.4948717948717944  0.000000  0.000000  0.000000  -16.505781749691018  -6.171921127524847  11.19720961838703  11.520443783958585  -3.1211708453253153  42.67797180381525  92.29566332443075  100.46548562365733  -49.53615652129305  35.69125156147708  120.000000
3.615384615384615  0.000000  0.000000  0.000000  -61.35788720516966  49.16079059505948  0.9880931066272582  95.02404761982514  42.907563700547946  0.3137469905947861  62.93170854670426  93.18794152833088  -118.9536141505646  93.6417303411197  120.000000
3.7358974358974355  0.000000  0.000000  0.000000  -63.839562439599284  -44.57425821843043  32.351659558068924  61.48367778293717  -47.643842490200505  -5.866558519520568  12.502078284104643  21.407582114857853  -20.18542206485013  84.79265156240002  120.000000
3.856410256410256  0.000000  0.000000  0.000000  -9.035486508085949  15.942943356530082  18.09382034958803  38.37641687572908  -47.378084690217335  -22.39976303222363  5.644927342515986  64.49400784027976  60.205725586908684  63.65670874965578  120.000000
3.9769230769230766  0.000000  0.000000  0.000000  -106.30679380119955  11.245540084298527  76.68621323288183  88.58950405354305  13.61674785018546  46.26215749227569  -52.52691021577458  32.17303052341733  71.38938643252162  33.01316019420014  120.000000
4.097435897435897  0.000000  0.000000  0.000000  -74.53115279095212  3.259887399283833  102.15205758215765  66.7939408826052  -2.7787254251984685  52.83273900596107  -70.30919810294914  26.044008774994037  31.621308724609126  40.21375254418244  120.000000
4.217948717948717  0.000000  0.000000  0.000000  -57.7978718589789  43.574935523236284  63.074407488487914  71.42353441193856  -16.372440561477315  30.956824275044806  -32.813248679386746  25.11566730521747  0.9415982015459455  70.54764106881781  120.000000
4.338461538461538  0.000000  0.000000  0.000000  -59.8355392574916  23.168961227041343  27.15418568806699  59.60005641725899  -19.457522844290164  21.478144899036568  20.953628741811258  25.26040690068431  -28.444241132728568  81.91135978525936  120.000000
4.458974358974358  0.000000  0.000000  0.000000  -57.401321642047215  13.069549957273212  8.678444976391399  60.11432215254742  -2.2005074898417822  8.447603299906227  49.70594124390053  34.830112445278  -43.00134193993776  77.03616444176347  120.000000
4.579487179487179  0.000000  0.000000  0.000000  -47.642771257639886  3.8158651291438748  -2.5176160333989817  57.5808238409132  13.418699024227005  4.699821841340177  60.52270585987999  42.3752537414104  -47.26462191702739  67.41386292023391  120.000000
4.699999999999999  0.000000  0.000000  0.000000  -42.18239159050862  -8.336332026742777  -11.360367788904126  45.902233432115175  26.459368748586673  9.36105897760429  64.83893052460233  45.701359727392564  -49.55483334217144  57.92425819851048  120.000000
